<?xml version="1.0" encoding="UTF-8"?>
<svg version="1.1" xmlns="http://www.w3.org/2000/svg" width="1024" height="1536" viewBox="0 0 1024 1536">
<path d="M0 0 C2.92824652 0.97608217 4.95613276 1.08226668 8 1 C7.67 1.99 7.34 2.98 7 4 C7.70125 4.4846875 8.4025 4.969375 9.125 5.46875 C41.04995544 28.02442504 51.09139964 66.81774316 57.62548828 103.51269531 C58.37875086 107.92140629 59.11258721 112.33182678 59.79589844 116.75195312 C60.01487793 118.16250977 60.01487793 118.16250977 60.23828125 119.6015625 C60.36243408 120.42994629 60.48658691 121.25833008 60.61450195 122.11181641 C60.82003422 124.00382339 60.82003422 124.00382339 62 125 C63.34015221 125.15582303 64.68758903 125.25044142 66.03515625 125.31640625 C66.84404297 125.35830078 67.65292969 125.40019531 68.48632812 125.44335938 C69.33646484 125.48267578 70.18660156 125.52199219 71.0625 125.5625 C72.34350586 125.62727539 72.34350586 125.62727539 73.65039062 125.69335938 C75.76672037 125.79976702 77.88333813 125.90041731 80 126 C80.33 125.34 80.66 124.68 81 124 C82.65 124 84.3 124 86 124 C86 124.66 86 125.32 86 126 C92.95146436 126.43458661 99.90340589 126.86084908 106.85571289 127.28173828 C109.21324809 127.42539832 111.57067442 127.57085808 113.92797852 127.71826172 C126.20885022 128.48500121 138.41905543 129.19675591 150.72680664 128.95507812 C153.69004822 128.99574617 156.11416831 129.40953267 159 130 C162.00239585 130.25962695 165.00949527 130.3947596 168.01953125 130.53515625 C168.87810226 130.57813339 169.73667328 130.62111053 170.6212616 130.66539001 C173.35151505 130.8012556 176.08198778 130.93194896 178.8125 131.0625 C180.66863666 131.15395524 182.5247567 131.24574833 184.38085938 131.33789062 C188.92038977 131.56250813 193.46012379 131.78248867 198 132 C198.33 131.34 198.66 130.68 199 130 C201.49556808 136.98426211 201.69599306 144.15833006 202.17333984 151.50512695 C202.27486171 152.98170928 202.37705806 154.45824536 202.47987366 155.93473816 C202.69978908 159.11380977 202.91493016 162.2931556 203.12635422 165.47280312 C203.46450122 170.55776872 203.81335903 175.64196705 204.16348267 180.72612 C204.72048561 188.83285522 205.27028382 196.94006078 205.81707919 205.0474903 C206.89969973 221.09712532 207.99580322 237.14584506 209.09500432 253.19435215 C209.27367169 255.80420214 209.45201333 258.41407425 209.63032341 261.02394867 C211.367878 286.43461599 213.27237352 311.82550501 215.36679554 337.20953655 C216.09099913 346.0240487 216.74810349 354.84298773 217.38671875 363.6640625 C217.43968361 364.39394819 217.49264847 365.12383389 217.54721832 365.87583733 C217.76129493 368.82671561 217.97501654 371.77761927 218.18819809 374.72856236 C221.89225136 425.99034071 226.05610168 477.21556578 230.2228384 528.44143105 C230.78595035 535.36449307 231.34769137 542.28766449 231.90820312 549.2109375 C235.08923038 588.49118226 238.41492693 627.75427731 242 667 C242.99 667.33 243.98 667.66 245 668 C245.33 668.33 245.66 668.66 246 669 C246.66 668.34 247.32 667.68 248 667 C248.33 667.99 248.66 668.98 249 670 C249.66 669.01 250.32 668.02 251 667 C251.66 667.66 252.32 668.32 253 669 C252.67 669.99 252.34 670.98 252 672 C252.66 672 253.32 672 254 672 C254 670.68 254 669.36 254 668 C256 668.66666667 258 669.33333333 260 670 C260 670.66 260 671.32 260 672 C260.99 672.33 261.98 672.66 263 673 C262.67 673.66 262.34 674.32 262 675 C262.66 675.33 263.32 675.66 264 676 C263.01 677.32 262.02 678.64 261 680 C261.99 680.33 262.98 680.66 264 681 C265.03291676 682.98320018 266.0337499 684.98347806 267 687 C269.29629994 688.14814997 271.07698086 688.30769809 273.625 688.5625 C274.44226563 688.64628906 275.25953125 688.73007812 276.1015625 688.81640625 C276.72804688 688.87699219 277.35453125 688.93757812 278 689 C278 692 278 692 277 694 C276.34 694.33 275.68 694.66 275 695 C275.66 695.33 276.32 695.66 277 696 C276.67 696.66 276.34 697.32 276 698 C274.02 698 272.04 698 270 698 C270.33 699.32 270.66 700.64 271 702 C270.030625 702.474375 269.06125 702.94875 268.0625 703.4375 C265.19522563 704.70193947 265.19522563 704.70193947 264 706 C264.33 706.99 264.66 707.98 265 709 C263.02 709.99 261.04 710.98 259 712 C259 712.66 259 713.32 259 714 C258.34 714 257.68 714 257 714 C257 714.99 257 715.98 257 717 C255.68 717.66 254.36 718.32 253 719 C253 719.66 253 720.32 253 721 C253.66 721.33 254.32 721.66 255 722 C254.01 722.99 253.02 723.98 252 725 C252.33 725.66 252.66 726.32 253 727 C250 728 250 728 248.125 727.5 C245.49116701 726.88027459 243.6207714 727.44825865 241 728 C240.34 727.67 239.68 727.34 239 727 C239.33 727.99 239.66 728.98 240 730 C239.0625 732.1875 239.0625 732.1875 238 734 C236.68 733.67 235.36 733.34 234 733 C234 733.66 234 734.32 234 735 C233.34 735.66 232.68 736.32 232 737 C231.67 737.66 231.34 738.32 231 739 C230.030625 739.144375 229.06125 739.28875 228.0625 739.4375 C227.051875 739.623125 226.04125 739.80875 225 740 C224.34 740.99 223.68 741.98 223 743 C222.34 742.34 221.68 741.68 221 741 C220.34 741.66 219.68 742.32 219 743 C217.68 743 216.36 743 215 743 C215 743.66 215 744.32 215 745 C215.99 745.33 216.98 745.66 218 746 C214.49223216 747.60355101 211.85645121 748.22036864 208 748 C207.67 748.66 207.34 749.32 207 750 C206.05125 749.79375 205.1025 749.5875 204.125 749.375 C203.09375 749.25125 202.0625 749.1275 201 749 C200.34 749.66 199.68 750.32 199 751 C197.02 750.34 195.04 749.68 193 749 C192.34 750.32 191.68 751.64 191 753 C190.401875 752.67 189.80375 752.34 189.1875 752 C186.94613529 750.79212012 186.94613529 750.79212012 184 751 C184 751.66 184 752.32 184 753 C183.2575 752.79375 182.515 752.5875 181.75 752.375 C178.58378732 751.94324373 177.66594982 752.36603075 175 754 C172.00593462 755.73273571 169.89215438 756.25179983 166.4375 756.1875 C165.67308594 756.18105469 164.90867187 756.17460938 164.12109375 756.16796875 C162 756 162 756 159 755 C158.67 755.99 158.34 756.98 158 758 C157.0925 757.62875 156.185 757.2575 155.25 756.875 C152.17228694 755.6953337 152.17228694 755.6953337 150 756.8125 C149.34 757.204375 148.68 757.59625 148 758 C144.38555534 758.81140594 142.54715438 759.18238479 139 758 C138.67 758.99 138.34 759.98 138 761 C138 760.34 138 759.68 138 759 C137.113125 759.474375 136.22625 759.94875 135.3125 760.4375 C132.42957244 761.79737149 130.12389377 762.54060386 127 763 C127.33 763.66 127.66 764.32 128 765 C126.35 765.33 124.7 765.66 123 766 C123 765.34 123 764.68 123 764 C122.34 764.66 121.68 765.32 121 766 C118.16032769 766 115.76264289 765.59732819 113 765 C113 765.66 113 766.32 113 767 C112.05125 766.835 111.1025 766.67 110.125 766.5 C107.19831099 765.9473365 107.19831099 765.9473365 105 766 C104.01 766 103.02 766 102 766 C100.906875 766.20625 99.81375 766.4125 98.6875 766.625 C94.79095655 767.02125866 92.5771161 766.48319448 89 765 C89 765.66 89 766.32 89 767 C88.44570313 766.83242187 87.89140625 766.66484375 87.3203125 766.4921875 C86.59585938 766.28851562 85.87140625 766.08484375 85.125 765.875 C84.40570312 765.66617188 83.68640625 765.45734375 82.9453125 765.2421875 C82.30335938 765.16226563 81.66140625 765.08234375 81 765 C80.34 765.66 79.68 766.32 79 767 C78.46890625 766.71125 77.9378125 766.4225 77.390625 766.125 C76.68421875 765.75375 75.9778125 765.3825 75.25 765 C74.55390625 764.62875 73.8578125 764.2575 73.140625 763.875 C70.76832243 762.74775351 70.76832243 762.74775351 67 763 C66.67 762.01 66.34 761.02 66 760 C63.69 759.67 61.38 759.34 59 759 C58.67 759.66 58.34 760.32 58 761 C58 760.34 58 759.68 58 759 C57.401875 759.165 56.80375 759.33 56.1875 759.5 C52.32518274 760.38281537 48.48380796 759.8518133 44.5625 759.5625 C43.42941406 759.48128906 42.29632812 759.40007813 41.12890625 759.31640625 C38 759 38 759 35.9296875 758.43359375 C32.53254999 757.67026933 29.17536124 758.42499056 25.75390625 758.84375 C22.93089525 759.00392084 20.75201697 758.58880363 18 758 C12.67309028 757.75324941 7.45431742 757.76158731 2.1875 758.625 C-1.8049709 759.09470246 -4.22972623 758.30805417 -8 757 C-8.33 757.66 -8.66 758.32 -9 759 C-9.99 759 -10.98 759 -12 759 C-12.99 759.33 -13.98 759.66 -15 760 C-15.845625 759.814375 -16.69125 759.62875 -17.5625 759.4375 C-18.366875 759.293125 -19.17125 759.14875 -20 759 C-20.66 759.66 -21.32 760.32 -22 761 C-22 760.34 -22 759.68 -22 759 C-22.598125 759.185625 -23.19625 759.37125 -23.8125 759.5625 C-26 760 -26 760 -29 759 C-29.103125 759.598125 -29.20625 760.19625 -29.3125 760.8125 C-30.13269935 763.42222519 -30.70216801 764.49452387 -33 766 C-36.1875 765.6875 -36.1875 765.6875 -39 765 C-39 765.66 -39 766.32 -39 767 C-42.3 767 -45.6 767 -49 767 C-49.33 769.31 -49.66 771.62 -50 774 C-50.680625 773.814375 -51.36125 773.62875 -52.0625 773.4375 C-55.58698592 772.91257657 -58.49232612 773.4362667 -62 774 C-63.66666667 774 -65.33333333 774 -67 774 C-67.99 774.33 -68.98 774.66 -70 775 C-70.99 775 -71.98 775 -73 775 C-73.33 775.99 -73.66 776.98 -74 778 C-74.33 778 -74.66 778 -75 778 C-77.95156447 778.52086432 -80.74392646 779.21804741 -83.625 780.0625 C-87 781 -87 781 -90 781 C-94.76678937 781.61791714 -99.47534224 782.33170824 -104.125 783.5625 C-106 784 -106 784 -109 784 C-109.639375 784.350625 -110.27875 784.70125 -110.9375 785.0625 C-113.48866771 786.22212168 -114.37173871 785.73919849 -117 785 C-119.09821215 785.39938767 -119.09821215 785.39938767 -121 786 C-121.66 786 -122.32 786 -123 786 C-123.33 786.66 -123.66 787.32 -124 788 C-124.66 787.67 -125.32 787.34 -126 787 C-127.66619446 786.9603287 -129.33391013 786.95615553 -131 787 C-131.33 787.66 -131.66 788.32 -132 789 C-132.72058594 788.814375 -133.44117188 788.62875 -134.18359375 788.4375 C-137.20215399 787.96859744 -139.11802168 788.27184462 -142.0625 789 C-145.5487644 789.85947967 -147.5597452 789.9029736 -151 789 C-152.77190909 790.35444301 -152.77190909 790.35444301 -154 792 C-153.01 792.66 -152.02 793.32 -151 794 C-153.25740623 796.33524782 -155.2805761 798.18705073 -158 800 C-161.77126791 798.98819642 -162.78414572 798.32378142 -165 795 C-165.99 795.66 -166.98 796.32 -168 797 C-167.01 797.33 -166.02 797.66 -165 798 C-165.33 798.66 -165.66 799.32 -166 800 C-167.98 799.34 -169.96 798.68 -172 798 C-172.33 798.66 -172.66 799.32 -173 800 C-174.093125 799.814375 -175.18625 799.62875 -176.3125 799.4375 C-179.93624133 798.7421932 -179.93624133 798.7421932 -183 800 C-185.6875 799.0625 -185.6875 799.0625 -188 798 C-188.66 798.99 -189.32 799.98 -190 801 C-191.98 800.01 -193.96 799.02 -196 798 C-196.33 798.66 -196.66 799.32 -197 800 C-202.875 799.125 -202.875 799.125 -204 798 C-204.66 798.66 -205.32 799.32 -206 800 C-208.00546689 799.70131344 -210.00577205 799.36628677 -212 799 C-212.99 799.33 -213.98 799.66 -215 800 C-217.6875 799.0625 -217.6875 799.0625 -220 798 C-220.33 798.66 -220.66 799.32 -221 800 C-219.68 800.33 -218.36 800.66 -217 801 C-220.29378302 801.28232426 -221.71660587 801.17971335 -224.5625 799.375 C-225.7690625 798.694375 -225.7690625 798.694375 -227 798 C-229.30287793 798.69140351 -229.30287793 798.69140351 -231 800 C-231.66 799.34 -232.32 798.68 -233 798 C-233.66 798 -234.32 798 -235 798 C-235.66 796.35 -236.32 794.7 -237 793 C-235.02 792.67 -233.04 792.34 -231 792 C-232.5778125 792.0309375 -232.5778125 792.0309375 -234.1875 792.0625 C-237.32704904 792.01103198 -239.96883396 791.73482813 -243 791 C-243 790.34 -243 789.68 -243 789 C-243.99 789.33 -244.98 789.66 -246 790 C-248.03060899 789.7325947 -250.0520013 789.39086244 -252.0625 789 C-256.15573327 787.97587427 -256.15573327 787.97587427 -260 789 C-260.763125 788.67 -261.52625 788.34 -262.3125 788 C-265.38456102 786.85690753 -266.89991179 787.11426051 -270 788 C-269.67 786.68 -269.34 785.36 -269 784 C-270.32 784 -271.64 784 -273 784 C-274.77409808 785.92022703 -274.77409808 785.92022703 -276 788 C-276.33 786.68 -276.66 785.36 -277 784 C-277.99 784 -278.98 784 -280 784 C-280.66 783.649375 -281.32 783.29875 -282 782.9375 C-284.12797292 781.65988843 -284.12797292 781.65988843 -287 783 C-287 782.34 -287 781.68 -287 781 C-287.99 781 -288.98 781 -290 781 C-290.33 781.66 -290.66 782.32 -291 783 C-291.66 782.34 -292.32 781.68 -293 781 C-293.99 781.165 -294.98 781.33 -296 781.5 C-296.99 781.665 -297.98 781.83 -299 782 C-299.66 781.34 -300.32 780.68 -301 780 C-303.04258066 779.79475805 -303.04258066 779.79475805 -305.3125 779.9375 C-308.70427771 780.01955914 -311.69119989 779.8538839 -315 779 C-315 778.01 -315 777.02 -315 776 C-315.66 776.33 -316.32 776.66 -317 777 C-317 776.34 -317 775.68 -317 775 C-318.98 775 -320.96 775 -323 775 C-323.66 776.32 -324.32 777.64 -325 779 C-325 777.68 -325 776.36 -325 775 C-326.9490625 775.0309375 -326.9490625 775.0309375 -328.9375 775.0625 C-330.29165633 775.08399454 -331.64756083 775.07148199 -333 775 C-333.33 774.67 -333.66 774.34 -334 774 C-335.59207821 773.57660579 -337.19957573 773.21033711 -338.8125 772.875 C-339.68519531 772.68679688 -340.55789063 772.49859375 -341.45703125 772.3046875 C-344.01753906 771.99789855 -345.55140039 772.33935 -348 773 C-348.78375 772.67 -349.5675 772.34 -350.375 772 C-353.62980993 770.76007241 -355.65722362 771.22261014 -359 772 C-359.33 771.34 -359.66 770.68 -360 770 C-359.34 769.67 -358.68 769.34 -358 769 C-358 768.34 -358 767.68 -358 767 C-358.5775 767.350625 -359.155 767.70125 -359.75 768.0625 C-362.501153 769.20881375 -363.22038784 768.95300988 -366 768 C-367.2375 767.649375 -368.475 767.29875 -369.75 766.9375 C-370.8225 766.628125 -371.895 766.31875 -373 766 C-373.33 766.66 -373.66 767.32 -374 768 C-375.36125 767.2575 -375.36125 767.2575 -376.75 766.5 C-380.00873038 764.72062788 -380.00873038 764.72062788 -384 765 C-384.33 765.66 -384.66 766.32 -385 767 C-386.65 766.34 -388.3 765.68 -390 765 C-390 764.34 -390 763.68 -390 763 C-390.845625 763.226875 -391.69125 763.45375 -392.5625 763.6875 C-396.84824031 764.07711276 -399.17979144 762.87406458 -403 761 C-405.79474972 760.06841676 -408.02383653 759.74536113 -410.9375 759.5 C-414.07288376 759.23517121 -416.95747123 758.78856037 -420 758 C-420.66 758 -421.32 758 -422 758 C-422.66 757.34 -423.32 756.68 -424 756 C-425.33841672 756.31229724 -426.67139075 756.64830932 -428 757 C-429.33333333 756.66666667 -430.66666667 756.33333333 -432 756 C-432.639375 756.185625 -433.27875 756.37125 -433.9375 756.5625 C-436.76152778 757.1615362 -438.37666901 756.07623836 -441 755 C-441.99 755.33 -442.98 755.66 -444 756 C-444.33 754.68 -444.66 753.36 -445 752 C-445.7425 752.185625 -446.485 752.37125 -447.25 752.5625 C-450.02319878 753.00369071 -451.35307668 752.68307699 -454 752 C-454.66 752.185625 -455.32 752.37125 -456 752.5625 C-458 753 -458 753 -459.9375 752 C-462.64021335 750.68959353 -464.17002588 751.21389608 -467 752 C-467.33 751.01 -467.66 750.02 -468 749 C-470.31 749.33 -472.62 749.66 -475 750 C-475 749.34 -475 748.68 -475 748 C-478.71599191 747.79913557 -479.77208445 747.8480563 -483 750 C-483 749.34 -483 748.68 -483 748 C-484.98 747.67 -486.96 747.34 -489 747 C-489.33 747.66 -489.66 748.32 -490 749 C-490.99 748.34 -491.98 747.68 -493 747 C-493 746.34 -493 745.68 -493 745 C-492.01 745 -491.02 745 -490 745 C-491.50349397 741.99301207 -494.0418948 741.41742541 -497 740 C-498 739 -498 739 -498.09765625 736.71484375 C-498.08605469 735.79832031 -498.07445312 734.88179687 -498.0625 733.9375 C-498.05347656 733.01839844 -498.04445313 732.09929688 -498.03515625 731.15234375 C-498.02355469 730.44207031 -498.01195312 729.73179687 -498 729 C-496.37509046 728.97301811 -494.75005367 728.95361243 -493.125 728.9375 C-492.22007812 728.92589844 -491.31515625 728.91429687 -490.3828125 728.90234375 C-488 729 -488 729 -486 730 C-486 729.34 -486 728.68 -486 728 C-484.68 728.33 -483.36 728.66 -482 729 C-482.66 729.33 -483.32 729.66 -484 730 C-471.84718866 732.5899434 -459.51071098 734.7002607 -447.125 735.75390625 C-444.07684406 736.1069096 -441.14092904 736.8162851 -438.16015625 737.53125 C-436.04071988 737.99116386 -433.96791867 738.2709612 -431.8125 738.5 C-428 739 -428 739 -425 740.0625 C-421.15921685 741.26274473 -418.01241611 741.13835918 -414 741 C-414 741.66 -414 742.32 -414 743 C-413.154375 742.79375 -412.30875 742.5875 -411.4375 742.375 C-407.36193827 741.93039327 -404.91074439 742.78189929 -401 744 C-394.04859947 745.49722473 -387.08258307 746.41618621 -380 747 C-380 747.66 -380 748.32 -380 749 C-379.113125 748.814375 -378.22625 748.62875 -377.3125 748.4375 C-374.12519881 748.01653569 -372.04612213 748.04264733 -369 749 C-368.67 749.66 -368.34 750.32 -368 751 C-367.278125 750.814375 -366.55625 750.62875 -365.8125 750.4375 C-361.11711499 749.70710678 -356.84625695 751.28938399 -352.3125 752.5 C-347.64187841 753.6848268 -343.1695081 754.37741443 -338.375 754.75390625 C-335.21356566 755.08148908 -332.19520609 755.78714889 -329.109375 756.53125 C-327.11665719 756.97407618 -325.08756606 757.24284875 -323.0625 757.5 C-320 758 -320 758 -318 760 C-317.278125 759.855625 -316.55625 759.71125 -315.8125 759.5625 C-311.60118977 758.72023795 -307.73182407 759.22345255 -303.8046875 760.984375 C-300.13293395 762.31397935 -296.48482739 762.59631113 -292.625 762.9375 C-283.33643096 763.85769734 -273.88740504 765.03753165 -265 768 C-264.13375 768 -263.2675 768 -262.375 768 C-261.59125 768 -260.8075 768 -260 768 C-259.67 768.33 -259.34 768.66 -259 769 C-257.68449463 769.28355088 -256.35734239 769.5136669 -255.02734375 769.71875 C-254.20943359 769.84636719 -253.39152344 769.97398437 -252.54882812 770.10546875 C-251.68708984 770.23566406 -250.82535156 770.36585938 -249.9375 770.5 C-249.10283203 770.63019531 -248.26816406 770.76039063 -247.40820312 770.89453125 C-243.44550939 771.50607713 -239.48703952 772.07037673 -235.50390625 772.53125 C-232 773 -232 773 -230 774 C-228.68 774 -227.36 774 -226 774 C-226 774.66 -226 775.32 -226 776 C-225.360625 775.79375 -224.72125 775.5875 -224.0625 775.375 C-220.52313583 774.94160847 -218.02436466 775.54395915 -214.59765625 776.390625 C-207.50153323 778.05527942 -200.21890838 779.0156034 -193 780 C-193 780.66 -193 781.32 -193 782 C-192.0925 781.773125 -191.185 781.54625 -190.25 781.3125 C-187 781 -187 781 -185.109375 782.46484375 C-182.52240087 784.34758603 -181.15917938 784.34631644 -178 784.25 C-177.154375 784.23453125 -176.30875 784.2190625 -175.4375 784.203125 C-173.18144231 784.01512019 -171.17149996 783.62330092 -169 783 C-170.32 782.34 -171.64 781.68 -173 781 C-171.88625 780.46375 -170.7725 779.9275 -169.625 779.375 C-163.48345718 776.29885071 -157.68838278 772.67187984 -151.859375 769.046875 C-150.77140625 768.37140625 -149.6834375 767.6959375 -148.5625 767 C-147.07943359 766.071875 -147.07943359 766.071875 -145.56640625 765.125 C-142.69793204 763.37677091 -139.76403008 761.77218104 -136.80859375 760.17578125 C-129.93493183 756.45481552 -123.24841742 752.43605463 -116.546875 748.41601562 C-115.61359375 747.85978516 -114.6803125 747.30355469 -113.71875 746.73046875 C-112.88279297 746.22926514 -112.04683594 745.72806152 -111.18554688 745.21166992 C-109 744 -109 744 -106 743 C-105.29037109 742.28263672 -105.29037109 742.28263672 -104.56640625 741.55078125 C-102.77756091 739.77977975 -101.26783891 739.11371456 -98.9375 738.1875 C-94.36090432 736.25932772 -90.25883102 733.82248471 -86.06640625 731.171875 C-84 730 -84 730 -82 730 C-82.49215147 713.85186023 -83.72864809 697.83287503 -85.23956299 681.75119019 C-89.34768624 637.91879959 -92.36660224 594.00319636 -95.43329048 550.08823013 C-95.83384623 544.35746085 -96.23889577 538.6270367 -96.64941406 532.89697266 C-103.90042607 431.66717068 -103.90042607 431.66717068 -103 384 C-102.67 384 -102.34 384 -102 384 C-101.95101563 385.19496094 -101.90203125 386.38992188 -101.8515625 387.62109375 C-101.40725625 398.27766757 -101.40725625 398.27766757 -99.40625 408.71875 C-98.63871112 413.02877601 -98.91588212 417.40408311 -99.02734375 421.765625 C-99.10607981 424.8804869 -99.10607981 424.8804869 -98.50219727 427.39892578 C-98.00575818 429.97017618 -97.90036317 432.23805811 -97.9375 434.8515625 C-97.94595947 435.77662598 -97.95441895 436.70168945 -97.96313477 437.65478516 C-97.97530029 438.63495605 -97.98746582 439.61512695 -98 440.625 C-98.04829005 448.30617486 -97.96937224 455.95363642 -97.5625 463.625 C-97.52318359 464.39924316 -97.48386719 465.17348633 -97.44335938 465.97119141 C-97.27189377 468.93292997 -97.04435288 471.78894149 -96.43359375 474.6953125 C-95.92974457 477.37342977 -96.14496222 479.55494051 -96.5 482.25 C-96.70551909 483.82876031 -96.88239029 485.41226886 -97 487 C-96.67 487.33 -96.34 487.66 -96 488 C-95.96786456 491.4660368 -96.06868766 494.9218885 -96.16015625 498.38671875 C-96.00004854 501.99890488 -95.16772302 504.60983638 -94 508 C-94.05859375 510.30078125 -94.05859375 510.30078125 -94.4375 512.3125 C-94.623125 513.529375 -94.80875 514.74625 -95 516 C-94.67 516.33 -94.34 516.66 -94 517 C-93.92720377 520.30312897 -94.00390614 523.5952085 -94.0625 526.8984375 C-94.15288146 530.03643965 -94.15288146 530.03643965 -93 533 C-91.84253028 538.44010767 -91.84253028 538.44010767 -92.5625 541 C-93.21349067 543.15898669 -93.21349067 543.15898669 -92.0625 545.8125 C-90.46928644 550.59214067 -90.46095653 555.19048914 -92 560 C-91.34 560 -90.68 560 -90 560 C-90 562.97 -90 565.94 -90 569 C-90.66 569 -91.32 569 -92 569 C-91.67257812 569.51046875 -91.34515625 570.0209375 -91.0078125 570.546875 C-89.64351616 573.86772037 -89.8087727 576.67372568 -89.875 580.25 C-89.89304687 581.51328125 -89.91109375 582.7765625 -89.9296875 584.078125 C-89.96449219 585.52445313 -89.96449219 585.52445313 -90 587 C-89.34 587.33 -88.68 587.66 -88 588 C-88.14107747 589.45880109 -88.28802415 590.91703551 -88.4375 592.375 C-88.51871094 593.18710937 -88.59992188 593.99921875 -88.68359375 594.8359375 C-89 597 -89 597 -90 599 C-89.34 599 -88.68 599 -88 599 C-88.01740234 600.82337891 -88.01740234 600.82337891 -88.03515625 602.68359375 C-88.04453278 604.26822764 -88.05363313 605.85286318 -88.0625 607.4375 C-88.07087891 608.23994141 -88.07925781 609.04238281 -88.08789062 609.86914062 C-88.0965143 611.91295221 -88.0522815 613.95683902 -88 616 C-87.67 616.33 -87.34 616.66 -87 617 C-86.12926923 622.72962345 -85.96036595 628.46483567 -86.0625 634.25 C-86.11764922 638.99283326 -85.43495807 642.51575603 -84 647 C-83.96227087 648.9996441 -83.95350094 651.00054061 -84 653 C-83.67 653.66 -83.34 654.32 -83 655 C-83.33984375 657.3828125 -83.33984375 657.3828125 -83.9375 660.125 C-84.13214844 661.03507813 -84.32679688 661.94515625 -84.52734375 662.8828125 C-84.68332031 663.58148437 -84.83929687 664.28015625 -85 665 C-84.01 665.33 -83.02 665.66 -82 666 C-81.875 672.625 -81.875 672.625 -83 676 C-82.67 676.33 -82.34 676.66 -82 677 C-81.92810632 679.58817253 -82.00367557 682.1617251 -82.0625 684.75 C-82.25872256 686.97034405 -82.25872256 686.97034405 -81 688 C-80.9278635 690.26328256 -81.00351911 692.51004593 -81.0625 694.7734375 C-81.10260791 697.17464965 -81.10260791 697.17464965 -80 700 C-79.93197033 701.72795352 -79.91504355 703.45835365 -79.9375 705.1875 C-79.94652344 706.08855469 -79.95554687 706.98960937 -79.96484375 707.91796875 C-79.98224609 708.94857422 -79.98224609 708.94857422 -80 710 C-76.12577792 710.50615271 -72.25051183 711.00382721 -68.375 711.5 C-66.73337891 711.71462891 -66.73337891 711.71462891 -65.05859375 711.93359375 C-63.99511719 712.06894531 -62.93164062 712.20429687 -61.8359375 712.34375 C-60.86188965 712.46943359 -59.8878418 712.59511719 -58.88427734 712.72460938 C-55.93499464 713.05545458 -55.93499464 713.05545458 -52.69775391 712.97851562 C-50 713 -50 713 -49 714 C-47.12855409 714.18596387 -45.25219696 714.3233776 -43.375 714.4375 C-38.6494051 714.78423004 -34.54937808 715.66194762 -30 717 C-27.66784156 717.07403678 -25.33139212 717.09515886 -23 717 C-23 717.66 -23 718.32 -23 719 C-21.02 718.67 -19.04 718.34 -17 718 C-17 718.66 -17 719.32 -17 720 C-16.07123047 720.10521973 -15.14246094 720.21043945 -14.18554688 720.31884766 C-4.07982804 721.51675598 5.91201713 723.11621133 15.92715454 724.91363525 C19.4652605 725.5480913 23.0051824 726.17213319 26.54499817 726.79696655 C29.14653263 727.25632216 31.74784534 727.71691626 34.34912109 728.17773438 C49.71930895 730.89757302 65.11213309 733.34819324 80.5625 735.5625 C81.31269409 735.67046906 82.06288818 735.77843811 82.83581543 735.88967896 C90.30884967 736.96253329 97.77832477 737.99893902 105.28125 738.84375 C106.89277954 739.03022095 106.89277954 739.03022095 108.53686523 739.22045898 C110.49812616 739.442175 112.46122543 739.64839575 114.42602539 739.83618164 C115.27672607 739.93278076 116.12742676 740.02937988 117.00390625 740.12890625 C117.73424072 740.20181885 118.4645752 740.27473145 119.21704102 740.34985352 C121 741 121 741 122.24975586 743.05444336 C122.49733643 743.69647705 122.74491699 744.33851074 123 745 C123.99 745 124.98 745 126 745 C125.99777939 744.19916489 125.99555878 743.39832977 125.99327087 742.57322693 C125.97298003 734.91328109 125.95788238 727.25334882 125.94818783 719.59338284 C125.94303579 715.65819054 125.93608361 711.723021 125.92456055 707.7878418 C125.91345127 703.96874338 125.90766593 700.14966642 125.90512276 696.33055305 C125.90331766 694.8954033 125.89979817 693.4602543 125.89426994 692.02511406 C125.86695292 684.61819228 125.96416875 677.24172522 126.35051823 669.84393501 C127.32234979 651.01382294 127.20955111 632.16085792 127.27039146 613.31085896 C127.28892281 607.93382165 127.31324325 602.55681047 127.33703613 597.17979431 C127.3916991 584.62414716 127.43976985 572.06847918 127.48697662 559.51280212 C127.55882252 540.47856415 127.63485752 521.44434513 127.71875 502.41015625 C127.72596144 500.76742922 127.72596144 500.76742922 127.73331857 499.09151578 C127.86998056 468.25739425 128.09280241 437.42578117 128.48046875 406.59375 C128.49037905 405.79083629 128.50028934 404.98792258 128.51049995 404.16067815 C128.86041569 375.81346956 129.38305513 347.46699771 130.33203125 319.1328125 C130.35555979 318.42045567 130.37908833 317.70809883 130.40332985 316.97415543 C131.39246736 287.16928966 132.70229644 257.37475768 134 227.58203125 C134.04051168 226.65163214 134.08102337 225.72123302 134.12276268 224.76264 C134.58722134 214.12262098 135.06843934 203.48353556 135.5703125 192.84521484 C135.66411325 190.84120416 135.75786385 188.83719112 135.8515625 186.83317566 C136.02754189 183.06973183 136.20776116 179.30652609 136.390625 175.54341125 C136.84305604 166.01783735 137.12438958 156.53881731 137 147 C135.72624512 146.92483154 134.45249023 146.84966309 133.14013672 146.7722168 C128.17868745 146.47899917 123.21733005 146.18425306 118.25601196 145.88882446 C116.00307267 145.75467179 113.75012263 145.62069945 111.49716187 145.48690796 C98.98357833 144.74259935 86.47208061 143.97766336 73.96484375 143.1328125 C72.93260681 143.06349014 71.90036987 142.99416779 70.83685303 142.92274475 C65.93812115 142.59323855 61.03985093 142.25842532 56.14208984 141.91479492 C46.07196276 141.22416855 36.09558379 140.81728762 26 141 C26.00523682 141.86802246 26.01047363 142.73604492 26.01586914 143.63037109 C26.03289862 146.84700273 26.04544408 150.06361141 26.05493164 153.28027344 C26.0599643 154.67318477 26.06679098 156.0660908 26.07543945 157.45898438 C26.08755152 159.45961246 26.09270412 161.46027888 26.09765625 163.4609375 C26.10289307 164.66540527 26.10812988 165.86987305 26.11352539 167.11083984 C26 170 26 170 25 172 C26.32 172.66 27.64 173.32 29 174 C28.67 174.99 28.34 175.98 28 177 C27.319375 176.2884375 27.319375 176.2884375 26.625 175.5625 C25.06741796 173.90972192 25.06741796 173.90972192 23 173 C23.04640625 173.83144531 23.0928125 174.66289062 23.140625 175.51953125 C23.17671875 176.60621094 23.2128125 177.69289063 23.25 178.8125 C23.29640625 179.89144531 23.3428125 180.97039062 23.390625 182.08203125 C23 185 23 185 21.20703125 186.86328125 C17.99891809 188.51560148 15.54785542 188.38703877 12 188 C10.296875 186.76953125 10.296875 186.76953125 9 185 C8.70703125 182.73828125 8.70703125 182.73828125 8.8125 180.3125 C8.83957031 179.50425781 8.86664062 178.69601562 8.89453125 177.86328125 C8.94673828 176.94095703 8.94673828 176.94095703 9 176 C9.33 176 9.66 176 10 176 C10 178.31 10 180.62 10 183 C14.06024321 180.96197865 14.06024321 180.96197865 16 177 C16.11513832 175.32849013 16.17636784 173.6530037 16.20532227 171.9777832 C16.22526749 170.95695145 16.24521271 169.93611969 16.26576233 168.88435364 C16.28247482 167.78427475 16.29918732 166.68419586 16.31640625 165.55078125 C16.33718735 164.4230278 16.35796844 163.29527435 16.37937927 162.13334656 C16.44482847 158.5264604 16.50373844 154.91950071 16.5625 151.3125 C16.60568961 148.86913298 16.64930404 146.42577344 16.69335938 143.98242188 C16.80050516 137.98835926 16.90228029 131.99422329 17 126 C17.66 125.67 18.32 125.34 19 125 C19 125.66 19 126.32 19 127 C27.25 127 35.5 127 44 127 C38.06 126.67 32.12 126.34 26 126 C26 125.67 26 125.34 26 125 C31.94 124.67 37.88 124.34 44 124 C44.33 122.35 44.66 120.7 45 119 C45.66 119.33 46.32 119.66 47 120 C47.625 122.5625 47.625 122.5625 48 125 C48.99 124.67 49.98 124.34 51 124 C51.42553362 109.76024284 51.42553362 109.76024284 48.7734375 95.8359375 C47.94887978 92.81255921 47.58929892 89.92651004 47.25 86.8125 C44.80938349 68.91464563 39.12679622 52.51201606 30 37 C28.13554673 33.38735268 26.45200299 29.79754627 25 26 C24.34 26 23.68 26 23 26 C22.4121875 24.1746875 22.4121875 24.1746875 21.8125 22.3125 C18.07967148 12.55235203 7.44005232 7.00451339 -1.5625 2.6875 C-15.37700085 -3.3714916 -26.81258756 -3.20274771 -41 2 C-41.66 2.33 -42.32 2.66 -43 3 C-44.34526982 3.09286411 -45.69452694 3.1317195 -47.04296875 3.140625 C-65.89931994 3.50035871 -80.94051822 7.80603907 -94.6875 21.4375 C-96.13539268 22.94844244 -97.57685767 24.46572291 -99 26 C-99 22.12684212 -97.9898556 21.52830955 -95.3125 18.8125 C-85.07096782 8.95622922 -71.4846534 1.42997116 -57 1 C-56.10925781 1.04125 -55.21851563 1.0825 -54.30078125 1.125 C-48.41836294 1.37106194 -44.33654147 0.94536738 -38.9375 -1.5 C-26.32041989 -6.81644072 -12.43579117 -4.89954431 0 0 Z" fill="#4B9C64" transform="translate(642,319)"/>
<path d="M0 0 C0.86882812 -0.00515625 1.73765625 -0.0103125 2.6328125 -0.015625 C4.875 0.25 4.875 0.25 6.875 2.25 C6.58625 2.76046875 6.2975 3.2709375 6 3.796875 C2.64714204 10.3628885 2.43125405 15.96517068 2.875 23.25 C3.82375 22.775625 4.7725 22.30125 5.75 21.8125 C7.45833333 20.95833333 9.16666667 20.10416667 10.875 19.25 C9.86882318 21.92576692 9.33285454 23.0285108 6.7109375 24.296875 C4.43229167 24.94791667 2.15364583 25.59895833 -0.125 26.25 C-1.19212714 41.37094341 -1.36758934 56.47007211 -1.375 71.625 C-1.37567474 72.86878418 -1.37634949 74.11256836 -1.37704468 75.39404297 C-1.36171117 93.1889427 -1.1722757 110.67364386 1.875 128.25 C2.14038574 129.82297852 2.14038574 129.82297852 2.41113281 131.42773438 C6.18563235 153.083844 12.17444909 177.77652049 30.921875 191.4765625 C40.8461169 197.88305668 49.94822072 201.55634709 61.875 200.25 C65.29348716 199.45668019 68.56004056 198.39044059 71.875 197.25 C73.20464525 196.90224663 74.53696647 196.56393497 75.875 196.25 C72.87324952 199.95804471 68.50692231 201.87282889 63.85620117 202.53930664 C61.72857977 202.65163058 59.63012226 202.66642437 57.5 202.625 C56.37464844 202.6108606 56.37464844 202.6108606 55.2265625 202.59643555 C49.65573024 202.44471258 44.92075133 201.72773475 39.875 199.25 C39.15441406 198.92128906 38.43382812 198.59257813 37.69140625 198.25390625 C20.97966911 189.8835561 11.60692939 173.87549049 5.67578125 156.796875 C5.41152344 155.95640625 5.14726562 155.1159375 4.875 154.25 C4.215 154.58 3.555 154.91 2.875 155.25 C1.8651527 153.33850332 0.86745505 151.42058431 -0.125 149.5 C-0.681875 148.43265625 -1.23875 147.3653125 -1.8125 146.265625 C-3.125 143.25 -3.125 143.25 -3.125 139.25 C-3.785 139.25 -4.445 139.25 -5.125 139.25 C-6.44786246 134.28926578 -6.21393197 129.33888488 -6.125 124.25 C-6.785 124.25 -7.445 124.25 -8.125 124.25 C-6.53372896 135.80288646 -4.35171825 146.94196656 -1.2109375 158.17578125 C-0.28703685 161.51002573 0.38434814 164.82088868 0.875 168.25 C-17.90203802 149.47296198 -13.29855376 96.15478145 -13.3125 71.6875 C-13.31358765 70.65592773 -13.31467529 69.62435547 -13.3157959 68.56152344 C-13.31205013 37.16695745 -13.31205013 37.16695745 -11.125 25.25 C-10.795 25.25 -10.465 25.25 -10.125 25.25 C-10.12722061 26.21085007 -10.12944122 27.17170013 -10.13172913 28.16166687 C-10.15210054 37.26690844 -10.16703909 46.37214531 -10.17681217 55.47740459 C-10.18200568 60.15722805 -10.1890383 64.83703293 -10.20043945 69.5168457 C-10.21139495 74.04263806 -10.21730336 78.56841269 -10.21987724 83.0942173 C-10.22170887 84.81115815 -10.22528496 86.52809816 -10.23073006 88.24503136 C-10.26031972 97.97201924 -10.07699066 107.56028537 -9.125 117.25 C-9.13166183 116.50007278 -9.13832367 115.75014557 -9.14518738 114.97749329 C-9.20637277 107.76091975 -9.25150223 100.54447922 -9.28043652 93.32771015 C-9.2958138 89.62127051 -9.31650896 85.91505235 -9.35131836 82.20874023 C-9.57677863 57.51916885 -7.7118869 33.71657885 -4.125 9.25 C-4.785 9.25 -5.445 9.25 -6.125 9.25 C-8.39454631 12.65431947 -8.49049949 14.41524202 -8.75 18.4375 C-8.82476562 19.52417969 -8.89953125 20.61085938 -8.9765625 21.73046875 C-9.02554688 22.56191406 -9.07453125 23.39335938 -9.125 24.25 C-9.455 24.25 -9.785 24.25 -10.125 24.25 C-10.24875 23.156875 -10.3725 22.06375 -10.5 20.9375 C-10.87964801 17.17618198 -10.87964801 17.17618198 -13.125 14.25 C-13.58181807 10.13863735 -13.58231782 7.98497507 -11.375 4.4375 C-7.75975068 0.92267428 -5.02495677 -0.02999974 0 0 Z" fill="#EFF5E8" transform="translate(407,552)"/>
<path d="M0 0 C2.65363169 2.65363169 2.30354516 4.01409107 2.4140625 7.72265625 C2.47207031 9.47968872 2.47207031 9.47968872 2.53125 11.2722168 C2.5621875 12.52301025 2.593125 13.77380371 2.625 15.0625 C2.68300781 16.95705933 2.68300781 16.95705933 2.7421875 18.88989258 C2.983484 27.3196506 3.06989421 35.73611239 2.9375 44.16796875 C2.67136109 46.90180553 2.67136109 46.90180553 4 48 C4.14171708 49.52332545 4.21710054 51.05288993 4.26538086 52.58203125 C4.29889145 53.56236328 4.33240204 54.54269531 4.3669281 55.55273438 C4.39924026 56.62845703 4.43155243 57.70417969 4.46484375 58.8125 C4.5436009 61.11067773 4.62237765 63.40885479 4.70117188 65.70703125 C4.81898188 69.31293669 4.93492157 72.91889475 5.04956055 76.52490234 C5.54988252 92.02511575 6.39480498 107.43415277 7.73516846 122.88421631 C8.18822927 128.21454626 8.59063188 133.54868625 8.99609375 138.8828125 C9.16252592 141.05762268 9.32903011 143.23242735 9.49560547 145.40722656 C9.57848816 146.49152954 9.66137085 147.57583252 9.74676514 148.69299316 C10.00205713 152.0268642 10.2588664 155.36061521 10.51611328 158.69433594 C10.94841835 164.29829806 11.37755792 169.90249569 11.80493164 175.50683594 C11.977471 177.7630947 12.15098283 180.0192793 12.32543945 182.27539062 C13.25682993 194.328883 14.1148465 206.3713815 14.66833496 218.44854736 C14.93837396 224.20025835 15.39103495 229.90511256 16.0625 235.625 C18.07071046 252.85857909 18.07071046 252.85857909 16 257 C16.66 257 17.32 257 18 257 C18.99 265.91 19.98 274.82 21 284 C21.33 281.36 21.66 278.72 22 276 C22.33 276 22.66 276 23 276 C23.85373239 283.02804699 24.12109311 289.92278069 24 297 C23.67 297 23.34 297 23 297 C23 300.63 23 304.26 23 308 C23.33 305.36 23.66 302.72 24 300 C25.99560152 301.6512005 26.91013507 302.6189053 27.51261902 305.17388916 C27.57701675 306.01659363 27.64141449 306.8592981 27.70776367 307.72753906 C27.78762009 308.68573547 27.8674765 309.64393188 27.94975281 310.63116455 C28.02176407 311.6655365 28.09377533 312.69990845 28.16796875 313.765625 C28.25250809 314.83238464 28.33704742 315.89914429 28.42414856 316.99822998 C28.69139766 320.41463791 28.93931856 323.83215963 29.1875 327.25 C29.36534347 329.53785347 29.54436607 331.8256156 29.72460938 334.11328125 C31.57894449 358.12447342 31.57894449 358.12447342 29.88671875 360.68359375 C16.55562234 369.98500056 16.55562234 369.98500056 10.25 371.3125 C8.64125 371.6528125 8.64125 371.6528125 7 372 C6.67 372.99 6.34 373.98 6 375 C4.3125 376.03515625 4.3125 376.03515625 2 377.0625 C-2.8080448 379.34717377 -7.36758804 381.90599182 -11.9375 384.625 C-13.41272653 385.50135913 -14.88798785 386.3776597 -16.36328125 387.25390625 C-17.1207666 387.7039502 -17.87825195 388.15399414 -18.65869141 388.61767578 C-22.63019503 390.96247803 -26.62892469 393.2599167 -30.625 395.5625 C-36.6104402 399.01791741 -42.57354082 402.50677043 -48.5 406.0625 C-49.42546631 406.61756226 -49.42546631 406.61756226 -50.36962891 407.18383789 C-52.95202454 408.73978428 -55.49077218 410.32718145 -58 412 C-58.99 412 -59.98 412 -61 412 C-60.62850062 397.2899145 -60.25471997 382.57988837 -59.87835789 367.86992645 C-59.70358506 361.03700834 -59.52950787 354.20407394 -59.35717773 347.37109375 C-59.19037613 340.7574053 -59.02149131 334.14377201 -58.85142326 327.53016663 C-58.78737536 325.02687785 -58.72398612 322.52357211 -58.66131783 320.02024841 C-58.35675494 307.87086043 -58.01483534 295.72767435 -57.48193359 283.5859375 C-57.04379685 273.60202929 -56.76628169 263.62279197 -56.58473396 253.63114357 C-56.53288247 250.78127828 -56.47755839 247.9314962 -56.42149353 245.08171082 C-56.3413517 240.9973956 -56.26235093 236.91306103 -56.18432617 232.82870483 C-55.61460049 203.10951677 -55.00671643 173.39546534 -54 143.6875 C-53.08969742 116.77482633 -52.45857431 89.85904192 -51.875 62.9375 C-51.85266296 61.91195889 -51.83032593 60.88641777 -51.80731201 59.82979965 C-51.65856412 52.99985703 -51.51205718 46.16986966 -51.3671875 39.33984375 C-51.3481625 38.45075569 -51.3291375 37.56166763 -51.30953598 36.64563751 C-51.25616755 34.1412973 -51.20383467 31.63693774 -51.15185547 29.13256836 C-51.12850883 28.0445192 -51.12850883 28.0445192 -51.10469055 26.93448925 C-51.06431863 24.95643033 -51.03196673 22.9782126 -51 21 C-50.90248947 19.07777367 -50.90248947 19.07777367 -50.80300903 17.11671448 C-50.86801605 16.0881987 -50.93302307 15.05968292 -51 14 C-54.28463659 11.81024227 -57.20696275 11.00193437 -61 10 C-61 9.67 -61 9.34 -61 9 C-60.08935791 8.83918945 -59.17871582 8.67837891 -58.24047852 8.51269531 C-54.01359569 7.76336362 -49.78773995 7.0085329 -45.5625 6.25 C-44.42761642 6.0465799 -44.42761642 6.0465799 -43.26980591 5.83905029 C-33.53768344 4.08825691 -23.89927847 2.21739686 -14.33984375 -0.3359375 C-9.41010559 -1.31611936 -4.83723593 -1.61241198 0 0 Z" fill="#BBCFB4" transform="translate(530,688)"/>
</svg>
